<svg width="124" height="20" viewBox="0 0 124 20" fill="none" xmlns="http://www.w3.org/2000/svg">
<path fill-rule="evenodd" clip-rule="evenodd" d="M11.2804 0.167357L14.2368 6.48972L21.6274 7.38229C21.9386 7.45667 22.0163 7.7542 21.783 7.97734L16.4928 12.6633L17.8931 19.5807C17.8931 19.8783 17.582 20.1014 17.3486 19.9526L11.0471 16.5311L4.58999 19.9526C4.2788 20.1014 4.04541 19.8783 4.04541 19.5807L5.52354 12.8121L0.0777964 7.97734C-0.0777964 7.7542 -3.14202e-08 7.45667 0.311186 7.38229L7.46845 6.63849L10.6581 0.167357C10.8137 -0.0557857 11.1249 -0.0557857 11.2804 0.167357Z" fill="#FFF4CB"/>
<path fill-rule="evenodd" clip-rule="evenodd" d="M36.5833 0.167357L39.5396 6.48972L46.9303 7.38229C47.2415 7.45667 47.3192 7.7542 47.0859 7.97734L41.7957 12.6633L43.196 19.5807C43.196 19.8783 42.8849 20.1014 42.6514 19.9526L36.35 16.5311L29.8928 19.9526C29.5817 20.1014 29.3483 19.8783 29.3483 19.5807L30.8264 12.8121L25.3807 7.97734C25.2251 7.7542 25.3029 7.45667 25.614 7.38229L32.7713 6.63849L35.9609 0.167357C36.1166 -0.0557857 36.4278 -0.0557857 36.5833 0.167357Z" fill="#FFF4CB"/>
<g clip-path="url(#clip0_1_13)">
<path fill-rule="evenodd" clip-rule="evenodd" d="M61.8861 0.167357L64.8425 6.48972L72.2331 7.38229C72.5443 7.45667 72.622 7.7542 72.3887 7.97734L67.0985 12.6633L68.4988 19.5807C68.4988 19.8783 68.1877 20.1014 67.9543 19.9526L61.6528 16.5311L55.1957 19.9526C54.8845 20.1014 54.6511 19.8783 54.6511 19.5807L56.1293 12.8121L50.6835 7.97734C50.5279 7.7542 50.6057 7.45667 50.9169 7.38229L58.0742 6.63849L61.2638 0.167357C61.4194 -0.0557857 61.7306 -0.0557857 61.8861 0.167357Z" fill="#FFF4CB"/>
</g>
<g clip-path="url(#clip1_1_13)">
<path fill-rule="evenodd" clip-rule="evenodd" d="M87.189 0.167357L90.1453 6.48972L97.536 7.38229C97.8472 7.45667 97.9249 7.7542 97.6916 7.97734L92.4014 12.6633L93.8017 19.5807C93.8017 19.8783 93.4906 20.1014 93.2572 19.9526L86.9557 16.5311L80.4986 19.9526C80.1874 20.1014 79.954 19.8783 79.954 19.5807L81.4321 12.8121L75.9864 7.97734C75.8308 7.7542 75.9086 7.45667 76.2198 7.38229L83.377 6.63849L86.5667 0.167357C86.7223 -0.0557857 87.0335 -0.0557857 87.189 0.167357Z" fill="#FFF4CB"/>
</g>
<g clip-path="url(#clip2_1_13)">
<path fill-rule="evenodd" clip-rule="evenodd" d="M112.492 0.167357L115.448 6.48972L122.839 7.38229C123.15 7.45667 123.228 7.7542 122.994 7.97734L117.704 12.6633L119.105 19.5807C119.105 19.8783 118.793 20.1014 118.56 19.9526L112.259 16.5311L105.801 19.9526C105.49 20.1014 105.257 19.8783 105.257 19.5807L106.735 12.8121L101.289 7.97734C101.134 7.7542 101.211 7.45667 101.523 7.38229L108.68 6.63849L111.87 0.167357C112.025 -0.0557857 112.336 -0.0557857 112.492 0.167357Z" fill="#FFF4CB"/>
</g>
<defs>
<clipPath id="clip0_1_13">
<rect width="22.14" height="20" fill="white" transform="translate(50.6057)"/>
</clipPath>
<clipPath id="clip1_1_13">
<rect width="22.14" height="20" fill="white" transform="translate(75.9086)"/>
</clipPath>
<clipPath id="clip2_1_13">
<rect width="22.14" height="20" fill="white" transform="translate(101.211)"/>
</clipPath>
</defs>
</svg>
